<svg width="57" height="56" viewBox="0 0 57 56" fill="none" xmlns="http://www.w3.org/2000/svg">
  <path fill-rule="evenodd" clip-rule="evenodd" d="M28.2001 56C43.664 56 56.2001 43.464 56.2001 28C56.2001 12.536 43.664 0 28.2001 0C12.7361 0 0.200073 12.536 0.200073 28C0.200073 43.464 12.7361 56 28.2001 56ZM33.5461 13C36.2958 13.4857 38.926 14.3387 41.3858 15.5125C45.6867 22.0629 47.8237 29.4508 47.0347 37.9719C43.744 40.4813 40.5519 42.0037 37.4136 43C36.6365 41.9134 35.9491 40.7553 35.3543 39.5411C36.4871 39.1021 37.575 38.5604 38.6032 37.9284C38.3342 37.7229 38.0682 37.5081 37.8082 37.287C31.6303 40.2696 24.8366 40.2696 18.584 37.287C18.327 37.5081 18.061 37.7229 17.789 37.9284C18.8142 38.5573 19.8991 39.099 21.0319 39.538C20.4371 40.7553 19.7467 41.9103 18.9726 42.9969C15.8373 42.0006 12.6482 40.4782 9.35754 37.9719C8.68505 30.6214 10.03 23.165 14.9915 15.5187C17.4513 14.3418 20.0844 13.4857 22.8372 13C23.1779 13.6226 23.5814 14.4602 23.8533 15.1264C26.7226 14.6781 29.6188 14.6781 32.5418 15.1264C32.8139 14.4602 33.2084 13.6226 33.5461 13ZM18.4675 29.4881C18.4675 31.6644 20.0067 33.4514 21.8837 33.4514C23.7936 33.4514 25.3029 31.6644 25.2999 29.4881C25.3328 27.3088 23.7936 25.5218 21.8837 25.5218C19.9739 25.5218 18.4675 27.3119 18.4675 29.4881ZM31.0923 29.4881C31.0923 31.6644 32.6315 33.4514 34.5085 33.4514C36.4183 33.4514 37.9247 31.6644 37.9247 29.4881C37.9576 27.3088 36.4183 25.5218 34.5085 25.5218C32.5986 25.5218 31.0923 27.3119 31.0923 29.4881Z" fill="currentColor" />
</svg>
