<svg width="57" height="56" viewBox="0 0 57 56" fill="none" xmlns="http://www.w3.org/2000/svg">
  <path fill-rule="evenodd" clip-rule="evenodd" d="M35.8333 56.0002C47.6894 52.6847 56.3999 41.6319 56.3999 28.5078C56.3999 12.7634 43.8639 0 28.3999 0C12.9359 0 0.399902 12.7634 0.399902 28.5078C0.399902 41.6312 9.10941 52.6834 20.9644 55.9996C21.8876 55.818 22.4776 54.7565 22.4776 54.1559C22.4776 53.8516 22.4721 52.8436 22.4654 51.63C22.4582 50.3033 22.4495 48.7309 22.4453 47.5639C15.5547 49.1785 14.1041 43.9682 14.1041 43.9682C12.9758 40.87 11.3559 40.0409 11.3559 40.0409C9.10736 38.3826 11.5251 38.4176 11.5251 38.4176C14.0074 38.6096 15.3129 41.1754 15.3129 41.1754C17.5212 45.2773 21.1075 44.0904 22.5179 43.4097C22.7435 41.6729 23.3883 40.4947 24.0894 39.8227C18.593 39.1507 12.8146 36.8466 12.8146 26.5744C12.8146 23.642 13.7817 21.2507 15.3613 19.3743C15.1115 18.7022 14.2572 15.9705 15.6031 12.2788C15.6031 12.2788 17.6823 11.5632 22.4131 15.028C24.3876 14.4345 26.5072 14.1378 28.6106 14.1291C30.7141 14.1378 32.8336 14.4345 34.8082 15.028C39.5389 11.5632 41.6101 12.2788 41.6101 12.2788C42.9641 15.9705 42.1178 18.7022 41.86 19.3743C43.4476 21.2507 44.3986 23.642 44.3986 26.5744C44.3986 36.8728 38.6121 39.1332 33.0996 39.8052C33.9861 40.6256 34.7759 42.2664 34.7759 44.7624C34.7759 47.1606 34.7651 50.1568 34.7579 52.1429C34.7544 53.1275 34.7517 53.8638 34.7517 54.1559C34.7517 54.7507 35.0208 55.8095 35.8333 56.0002Z" fill="currentColor" />
</svg>
