<svg width="57" height="56" viewBox="0 0 57 56" fill="none" xmlns="http://www.w3.org/2000/svg">
  <path fill-rule="evenodd" clip-rule="evenodd" d="M28.8 56C44.264 56 56.8 43.464 56.8 28C56.8 12.536 44.264 0 28.8 0C13.3361 0 0.800049 12.536 0.800049 28C0.800049 43.464 13.3361 56 28.8 56ZM18.6429 40C25.1846 40 30.488 34.1798 30.488 27.0002C30.488 19.8206 25.185 14 18.6429 14C12.1008 14 6.79744 19.8219 6.79744 27.0002C6.79744 34.1785 12.1012 40 18.6429 40ZM37.5597 39.2389C40.8307 39.2389 43.4824 33.7583 43.4824 27.0002H43.482C43.482 20.2404 40.8303 14.7615 37.5593 14.7615C34.2882 14.7615 31.6369 20.2422 31.6369 27.0002C31.6369 33.7583 34.2886 39.2389 37.5597 39.2389ZM46.7144 37.9642C47.865 37.9642 48.7974 33.0538 48.7974 27.0002C48.7974 20.9449 47.8646 16.0363 46.7144 16.0363C45.5642 16.0363 44.6318 20.9454 44.6318 27.0002C44.6318 33.0551 45.5638 37.9642 46.7144 37.9642Z" fill="currentColor" />
</svg>
