<svg width="120" height="54" viewBox="0 0 120 54" fill="none" xmlns="http://www.w3.org/2000/svg">
<path d="M110 -1.06977e-06C115.523 -4.78953e-07 120 4.47715 120 10L120 44C120 49.5229 115.523 54 110 54L10 54C4.47715 54 4.23893e-06 49.5228 4.82975e-06 44L8.46697e-06 9.99999C9.05779e-06 4.47714 4.47716 -1.23583e-05 10 -1.17675e-05L110 -1.06977e-06Z" fill="#FFCB3D"/>
<path d="M23.111 24.264C21.5563 24.264 20.1373 23.9157 18.854 23.219C17.5707 22.515 16.5623 21.5543 15.829 20.337C15.103 19.1197 14.74 17.774 14.74 16.3C14.74 14.826 15.103 13.4803 15.829 12.263C16.5623 11.0457 17.5707 10.0887 18.854 9.392C20.1373 8.688 21.5563 8.336 23.111 8.336C25.2157 8.336 27.049 8.97033 28.611 10.239L26.488 13.286C25.454 12.3913 24.3283 11.944 23.111 11.944C21.923 11.944 20.9293 12.362 20.13 13.198C19.3307 14.0267 18.931 15.0607 18.931 16.3C18.931 17.5393 19.3307 18.577 20.13 19.413C20.9293 20.2417 21.923 20.656 23.111 20.656C23.749 20.656 24.3723 20.5203 24.981 20.249C25.597 19.9777 26.1397 19.622 26.609 19.182L28.82 22.207C27.2287 23.5783 25.3257 24.264 23.111 24.264ZM35.5987 13.198C34.7994 14.0267 34.3997 15.0607 34.3997 16.3C34.3997 17.5393 34.7994 18.577 35.5987 19.413C36.3981 20.2417 37.3917 20.656 38.5797 20.656C39.7677 20.656 40.7614 20.2417 41.5607 19.413C42.3601 18.577 42.7597 17.5393 42.7597 16.3C42.7597 15.0607 42.3601 14.0267 41.5607 13.198C40.7614 12.362 39.7677 11.944 38.5797 11.944C37.3917 11.944 36.3981 12.362 35.5987 13.198ZM31.2977 20.337C30.5717 19.1197 30.2087 17.774 30.2087 16.3C30.2087 14.826 30.5717 13.4803 31.2977 12.263C32.0311 11.0457 33.0394 10.0887 34.3227 9.392C35.6061 8.688 37.0251 8.336 38.5797 8.336C40.1344 8.336 41.5534 8.688 42.8367 9.392C44.1201 10.0887 45.1247 11.0457 45.8507 12.263C46.5841 13.4803 46.9507 14.826 46.9507 16.3C46.9507 17.774 46.5841 19.1197 45.8507 20.337C45.1247 21.5543 44.1201 22.515 42.8367 23.219C41.5534 23.9157 40.1344 24.264 38.5797 24.264C37.0251 24.264 35.6061 23.9157 34.3227 23.219C33.0394 22.515 32.0311 21.5543 31.2977 20.337ZM58.7324 19.622L55.7844 19.622L53.1004 14.265L53.1004 24L49.2724 24L49.2724 8.6L54.0024 8.6L57.2584 15.112L60.5144 8.6L65.2444 8.6L65.2444 24L61.4164 24L61.4164 14.265L58.7324 19.622ZM68.3621 8.6L72.5421 8.6L72.5421 24L68.3621 24L68.3621 8.6ZM75.6552 24L75.6552 8.6L80.1432 8.6L84.4552 17.972L84.4552 8.6L88.2832 8.6L88.2832 24L83.7952 24L79.4832 14.628L79.4832 24L75.6552 24ZM98.9723 11.944C97.7696 11.944 96.7723 12.3657 95.9803 13.209C95.1883 14.045 94.7923 15.1047 94.7923 16.388C94.7923 17.6347 95.192 18.687 95.9913 19.545C96.798 20.3957 97.7916 20.821 98.9723 20.821C99.581 20.821 100.109 20.6927 100.556 20.436L100.556 18.214L97.9053 18.214L97.9053 15.145L104.736 15.145L104.736 22.152C103.974 22.8267 103.097 23.3473 102.107 23.714C101.117 24.0807 100.072 24.264 98.9723 24.264C97.4176 24.264 95.9986 23.9157 94.7153 23.219C93.432 22.515 92.4236 21.5543 91.6903 20.337C90.9643 19.1197 90.6013 17.774 90.6013 16.3C90.6013 14.826 90.9643 13.4803 91.6903 12.263C92.4236 11.0457 93.432 10.0887 94.7153 9.392C95.9986 8.68801 97.4176 8.33601 98.9723 8.33601C101.077 8.33601 102.91 8.97034 104.472 10.239L102.349 13.286C101.315 12.3913 100.19 11.944 98.9723 11.944ZM28.0618 43.811L30.1848 41.028C30.7275 41.578 31.3325 42.0143 31.9998 42.337C32.6672 42.6597 33.3308 42.821 33.9908 42.821C34.4602 42.821 34.8525 42.7037 35.1678 42.469C35.4832 42.227 35.6408 41.9263 35.6408 41.567C35.6408 41.1637 35.4502 40.8153 35.0688 40.522C34.6948 40.2213 34.0055 39.961 33.0008 39.741C31.5782 39.433 30.4525 38.883 29.6238 38.091C28.8025 37.2917 28.3918 36.3017 28.3918 35.121C28.3918 33.7497 28.8942 32.6093 29.8988 31.7C30.9108 30.7907 32.1905 30.336 33.7378 30.336C34.7278 30.336 35.6812 30.5083 36.5978 30.853C37.5218 31.1977 38.3358 31.678 39.0398 32.294L37.0378 35.165C35.8792 34.197 34.8378 33.713 33.9138 33.713C33.5325 33.713 33.2135 33.8157 32.9568 34.021C32.7075 34.2263 32.5828 34.4793 32.5828 34.78C32.5828 35.1467 32.7515 35.4657 33.0888 35.737C33.4335 36.0083 34.0458 36.243 34.9258 36.441C36.5098 36.8003 37.7235 37.3907 38.5668 38.212C39.4102 39.0333 39.8318 40.0637 39.8318 41.303C39.8318 42.733 39.2928 43.9173 38.2148 44.856C37.1442 45.7947 35.7252 46.264 33.9578 46.264C32.7698 46.264 31.6698 46.0513 30.6578 45.626C29.6532 45.1933 28.7878 44.5883 28.0618 43.811ZM46.6417 35.198C45.8424 36.0267 45.4427 37.0607 45.4427 38.3C45.4427 39.5393 45.8424 40.577 46.6417 41.413C47.441 42.2417 48.4347 42.656 49.6227 42.656C50.8107 42.656 51.8044 42.2417 52.6037 41.413C53.403 40.577 53.8027 39.5393 53.8027 38.3C53.8027 37.0607 53.403 36.0267 52.6037 35.198C51.8044 34.362 50.8107 33.944 49.6227 33.944C48.4347 33.944 47.441 34.362 46.6417 35.198ZM42.3407 42.337C41.6147 41.1197 41.2517 39.774 41.2517 38.3C41.2517 36.826 41.6147 35.4803 42.3407 34.263C43.074 33.0457 44.0824 32.0887 45.3657 31.392C46.649 30.688 48.068 30.336 49.6227 30.336C51.1774 30.336 52.5964 30.688 53.8797 31.392C55.163 32.0887 56.1677 33.0457 56.8937 34.263C57.627 35.4803 57.9937 36.826 57.9937 38.3C57.9937 39.774 57.627 41.1197 56.8937 42.337C56.1677 43.5543 55.163 44.515 53.8797 45.219C52.5964 45.9157 51.1774 46.264 49.6227 46.264C48.068 46.264 46.649 45.9157 45.3657 45.219C44.0824 44.515 43.074 43.5543 42.3407 42.337ZM64.9464 35.198C64.1471 36.0267 63.7474 37.0607 63.7474 38.3C63.7474 39.5393 64.1471 40.577 64.9464 41.413C65.7457 42.2417 66.7394 42.656 67.9274 42.656C69.1154 42.656 70.1091 42.2417 70.9084 41.413C71.7077 40.577 72.1074 39.5393 72.1074 38.3C72.1074 37.0607 71.7077 36.0267 70.9084 35.198C70.1091 34.362 69.1154 33.944 67.9274 33.944C66.7394 33.944 65.7457 34.362 64.9464 35.198ZM60.6454 42.337C59.9194 41.1197 59.5564 39.774 59.5564 38.3C59.5564 36.826 59.9194 35.4803 60.6454 34.263C61.3787 33.0457 62.3871 32.0887 63.6704 31.392C64.9537 30.688 66.3727 30.336 67.9274 30.336C69.4821 30.336 70.9011 30.688 72.1844 31.392C73.4677 32.0887 74.4724 33.0457 75.1984 34.263C75.9317 35.4803 76.2984 36.826 76.2984 38.3C76.2984 39.774 75.9317 41.1197 75.1984 42.337C74.4724 43.5543 73.4677 44.515 72.1844 45.219C70.9011 45.9157 69.4821 46.264 67.9274 46.264C66.3727 46.264 64.9537 45.9157 63.6704 45.219C62.3871 44.515 61.3787 43.5543 60.6454 42.337ZM78.6201 46L78.6201 30.6L83.1081 30.6L87.4201 39.972L87.4201 30.6L91.2481 30.6L91.2481 46L86.7601 46L82.4481 36.628L82.4481 46L78.6201 46Z" fill="#1E1E1E"/>
</svg>
